<?xml version="1.0" encoding="UTF-8"?>
<svg version="1.1" xmlns="http://www.w3.org/2000/svg" width="307" height="180" viewBox="0 0 307 180">
<path d="M0 0 C5.72890742 -0.22304079 11.45527398 -0.38603876 17.1875 -0.49438477 C19.135539 -0.53955622 21.08327431 -0.6009115 23.03027344 -0.67895508 C39.17394219 -1.30969597 39.17394219 -1.30969597 43.50292969 1.79516602 C45.09392622 4.15187344 46.06112979 6.32311186 47 9 C47.66347047 10.19208027 48.34946639 11.3720434 49.0625 12.53515625 C49.71133396 13.70928432 50.35703953 14.8851453 51 16.0625 C54.76208111 22.84682166 58.63997384 29.55727874 62.5625 36.25 C67.3864575 44.48628098 72.15321179 52.75293963 76.87228394 61.04968262 C83.12618515 72.04430629 89.50376269 82.95581392 95.97973633 93.82177734 C102.86664385 105.40357213 109.53172532 117.10769274 116.18017578 128.82763672 C118.64692932 133.12774344 121.18301045 137.38604414 123.73022461 141.63891602 C125 144 125 144 125 146 C128.81100923 143.90474348 132.61952102 141.80503782 136.42578125 139.70117188 C137.72100166 138.98607523 139.01689681 138.27219929 140.31347656 137.55957031 C142.17691886 136.5351051 144.03789139 135.50627599 145.8984375 134.4765625 C147.01911621 133.85861816 148.13979492 133.24067383 149.29443359 132.60400391 C152.03482168 131.13027589 152.03482168 131.13027589 154 129 C153.6596875 128.41959961 153.319375 127.83919922 152.96875 127.24121094 C145.59351844 114.65329909 138.28157972 102.03250908 131.05529785 89.35848999 C126.14451996 80.74566129 121.21016526 72.14703374 116.25 63.5625 C111.33645841 55.05807328 106.44027235 46.54431392 101.58178711 38.00830078 C98.73303372 33.00962656 95.85586537 28.0283727 92.95703125 23.05859375 C91.91697624 21.27131002 90.87727002 19.4838238 89.83764648 17.69628906 C88.83216239 15.97123372 87.82140553 14.24925518 86.81054688 12.52734375 C85.89305664 10.94953125 85.89305664 10.94953125 84.95703125 9.33984375 C84.41022705 8.40519287 83.86342285 7.47054199 83.30004883 6.50756836 C82.14053442 4.27106648 81.55208679 2.43022397 81 0 C86.72890742 -0.22304079 92.45527398 -0.38603876 98.1875 -0.49438477 C100.135539 -0.53955622 102.08327431 -0.6009115 104.03027344 -0.67895508 C120.07047542 -1.30565347 120.07047542 -1.30565347 124.3996582 1.6237793 C126.02154448 4.01045748 126.97845743 6.30369837 128 9 C129.08656822 10.89964534 130.20169929 12.78314336 131.33984375 14.65234375 C132.54210239 16.74565285 133.7411744 18.84079451 134.9375 20.9375 C135.92887461 22.66523641 136.92025385 24.39297018 137.91191101 26.12054443 C138.934108 27.90223619 139.95497869 29.68468235 140.97558594 31.46728516 C144.15964638 37.02652277 147.36101373 42.57578504 150.5625 48.125 C151.18237793 49.19983643 151.80225586 50.27467285 152.44091797 51.38208008 C156.62989732 58.64039116 160.83869741 65.88690329 165.0625 73.125 C165.90784302 74.57471191 165.90784302 74.57471191 166.77026367 76.05371094 C169.83075261 81.29826614 172.90343765 86.53535519 175.98828125 91.765625 C176.63853271 92.87147949 177.28878418 93.97733398 177.95874023 95.11669922 C179.21375816 97.25066141 180.4722566 99.38258137 181.73461914 101.51220703 C182.2939917 102.46466309 182.85336426 103.41711914 183.4296875 104.3984375 C183.92710449 105.24067871 184.42452148 106.08291992 184.93701172 106.95068359 C186 109 186 109 186 111 C189.7105129 108.92053116 193.41800941 106.83574049 197.125 104.75 C198.17171875 104.16347656 199.2184375 103.57695313 200.296875 102.97265625 C205.32293671 100.14152022 210.27036662 97.30583371 215 94 C214.6596875 93.41959961 214.319375 92.83919922 213.96875 92.24121094 C204.90046884 76.76363265 195.9536582 61.21994025 187.07177734 45.63476562 C183.87370639 40.023289 180.67169991 34.4140606 177.46844482 28.80554199 C176.4753535 27.0662946 175.48302297 25.32661288 174.49072266 23.58691406 C173.56525635 21.9660791 173.56525635 21.9660791 172.62109375 20.3125 C172.0266748 19.2709375 171.43225586 18.229375 170.81982422 17.15625 C168.34633219 12.86629763 165.81311811 8.6121514 163.26977539 4.36328125 C162 2 162 2 162 0 C167.76570815 -0.12363784 173.53064422 -0.21435706 179.29736328 -0.2746582 C181.25876303 -0.29979604 183.22006916 -0.33391165 185.18115234 -0.37719727 C188.00121144 -0.43788208 190.82003194 -0.46621641 193.640625 -0.48828125 C194.51680481 -0.51408768 195.39298462 -0.5398941 196.29571533 -0.56648254 C202.38815745 -0.56928657 202.38815745 -0.56928657 205.41845703 2.25024414 C206.2013208 3.61137329 206.2013208 3.61137329 207 5 C207.46100098 5.73444336 207.92200195 6.46888672 208.39697266 7.22558594 C208.8151123 7.97098633 209.23325195 8.71638672 209.6640625 9.484375 C210.14093506 10.32790527 210.61780762 11.17143555 211.10913086 12.04052734 C211.85948608 13.38171631 211.85948608 13.38171631 212.625 14.75 C213.70090414 16.65416526 214.77773873 18.55780507 215.85546875 20.4609375 C216.65476807 21.87391113 216.65476807 21.87391113 217.47021484 23.31542969 C219.58499189 27.02658328 221.75645687 30.70253795 223.9375 34.375 C227.82049659 40.92878268 231.58022277 47.54686856 235.3125 54.1875 C240.09930205 62.69869667 244.99993138 71.13255631 249.98803711 79.52709961 C256.12109284 89.86045243 262.1063701 100.27808264 268.09716797 110.69433594 C269.96919421 113.94648313 271.84513035 117.1963377 273.72265625 120.4453125 C280.00826008 131.32268578 286.2785674 142.2087406 292.51809692 153.11260986 C293.52696476 154.87540911 294.53678056 156.63766573 295.54663086 158.39990234 C299.44670401 165.22314591 303.2666961 172.08406536 307 179 C303.76690158 180.61654921 300.22204643 180.20567585 296.66796875 180.23828125 C295.83920731 180.246353 295.01044586 180.25442474 294.15657043 180.26274109 C292.40054415 180.27658221 290.64449096 180.28730424 288.88842773 180.29516602 C286.20829991 180.31236651 283.52940972 180.35624926 280.84960938 180.40039062 C279.14323824 180.41051879 277.43685661 180.41903451 275.73046875 180.42578125 C274.93134567 180.44328934 274.1322226 180.46079742 273.30888367 180.47883606 C269.50547189 180.46407771 267.47112129 180.2827453 264.14550781 178.28686523 C261.95191629 175.94874828 260.46156054 173.80272909 258.94140625 170.984375 C258.39734131 169.99179688 257.85327637 168.99921875 257.29272461 167.9765625 C256.43626343 166.37941406 256.43626343 166.37941406 255.5625 164.75 C254.32751275 162.49370025 253.09047636 160.23852108 251.8515625 157.984375 C251.21895508 156.83001953 250.58634766 155.67566406 249.93457031 154.48632812 C246.30463948 147.94475665 242.49921185 141.50610289 238.70727539 135.05761719 C235.39283288 129.41329779 232.14699181 123.73951785 229 118 C224.99335581 118.58292374 222.21379332 119.83687631 218.76953125 121.94140625 C217.80208984 122.52470703 216.83464844 123.10800781 215.83789062 123.70898438 C214.34032227 124.62647461 214.34032227 124.62647461 212.8125 125.5625 C210.82135592 126.7759924 208.82797718 127.98582821 206.83203125 129.19140625 C205.95264893 129.72967041 205.0732666 130.26793457 204.16723633 130.82250977 C202 132 202 132 200 132 C205.26460252 143.24170764 211.49165115 153.87261657 217.79296875 164.55859375 C218.62320557 165.96987549 218.62320557 165.96987549 219.47021484 167.40966797 C220.41056071 169.00192293 221.35737477 170.59040489 222.31494141 172.17236328 C225 176.675 225 176.675 225 180 C219.3766798 180.09892174 213.75386667 180.17149342 208.12988281 180.21972656 C206.21703265 180.23983452 204.30424389 180.26712507 202.39160156 180.30175781 C199.64112189 180.35031249 196.89145523 180.37297658 194.140625 180.390625 C193.28631897 180.41127014 192.43201294 180.43191528 191.55181885 180.45318604 C185.64011703 180.45541715 185.64011703 180.45541715 182.63085938 178.31445312 C180.85506867 175.79431902 179.26348243 173.27426837 177.765625 170.578125 C176.90517578 169.04091797 176.90517578 169.04091797 176.02734375 167.47265625 C175.44082031 166.40917969 174.85429687 165.34570312 174.25 164.25 C173.64800781 163.17105469 173.04601562 162.09210938 172.42578125 160.98046875 C170.94450739 158.32358072 169.4695098 155.66340712 168 153 C165.48875622 153 164.3377261 153.78823286 162.1484375 155.01171875 C161.37886719 155.44033203 160.60929688 155.86894531 159.81640625 156.31054688 C159.01074219 156.76494141 158.20507812 157.21933594 157.375 157.6875 C156.59253906 158.12255859 155.81007812 158.55761719 155.00390625 159.00585938 C149.90681865 161.85870691 144.92292835 164.85653509 140 168 C141.2125738 171.72433382 142.50859979 175.37802806 144 179 C141.11222767 181.88777233 130.63099917 180.32326117 126.53662109 180.35009766 C124.68590705 180.36663637 122.83525634 180.39389899 120.98486328 180.43212891 C118.31769647 180.48696963 115.65203014 180.50878419 112.984375 180.5234375 C112.16024109 180.54610687 111.33610718 180.56877625 110.48699951 180.59213257 C106.31515086 180.57683424 104.5410338 180.41552651 101.13842773 177.80224609 C99.11176993 175.14646594 97.39635202 172.57347301 95.80078125 169.640625 C95.23689697 168.61654541 94.6730127 167.59246582 94.09204102 166.53735352 C93.50479248 165.45252686 92.91754395 164.3677002 92.3125 163.25 C91.05868397 160.97188941 89.80347284 158.69454609 88.546875 156.41796875 C87.93779297 155.31114746 87.32871094 154.20432617 86.70117188 153.06396484 C84.55112599 149.19153719 82.32767702 145.36840121 80.0625 141.5625 C75.92594992 134.59282609 71.85878137 127.58497607 67.8125 120.5625 C67.17449463 119.45527588 66.53648926 118.34805176 65.87915039 117.20727539 C64.57110523 114.93662932 63.26324552 112.66587642 61.95556641 110.39501953 C58.80667946 104.9283002 55.65316736 99.46425113 52.5 94 C51.2499765 91.83334689 49.99997653 89.66668021 48.75 87.5 C48.13125 86.4275 47.5125 85.355 46.875 84.25 C40 72.33333333 33.125 60.41666667 26.25 48.5 C25.6300415 47.42564697 25.01008301 46.35129395 24.37133789 45.24438477 C23.13269785 43.09692391 21.8948924 40.94898143 20.65795898 38.80053711 C17.72167745 33.70284226 14.77682582 28.61065771 11.80252075 23.5350647 C10.39193333 21.12676124 8.98606439 18.7157197 7.58056641 16.30444336 C6.58175413 14.59544443 5.5760977 12.8904514 4.5703125 11.18554688 C3.67119141 9.64157227 3.67119141 9.64157227 2.75390625 8.06640625 C2.22095947 7.15834229 1.6880127 6.25027832 1.13891602 5.31469727 C0 3 0 3 0 0 Z " fill="#128A6E" transform="translate(0,0)"/>
<path d="M0 0 C5.72890742 -0.22304079 11.45527398 -0.38603876 17.1875 -0.49438477 C19.135539 -0.53955622 21.08327431 -0.6009115 23.03027344 -0.67895508 C39.17394219 -1.30969597 39.17394219 -1.30969597 43.50292969 1.79516602 C45.09392622 4.15187344 46.06112979 6.32311186 47 9 C47.66347047 10.19208027 48.34946639 11.3720434 49.0625 12.53515625 C49.71133396 13.70928432 50.35703953 14.8851453 51 16.0625 C54.76208111 22.84682166 58.63997384 29.55727874 62.5625 36.25 C67.3864575 44.48628098 72.15321179 52.75293963 76.87228394 61.04968262 C83.12618515 72.04430629 89.50376269 82.95581392 95.97973633 93.82177734 C102.86664385 105.40357213 109.53172532 117.10769274 116.18017578 128.82763672 C118.64692932 133.12774344 121.18301045 137.38604414 123.73022461 141.63891602 C125 144 125 144 125 146 C128.81100923 143.90474348 132.61952102 141.80503782 136.42578125 139.70117188 C137.72100166 138.98607523 139.01689681 138.27219929 140.31347656 137.55957031 C142.17691886 136.5351051 144.03789139 135.50627599 145.8984375 134.4765625 C147.01911621 133.85861816 148.13979492 133.24067383 149.29443359 132.60400391 C152.03482168 131.13027589 152.03482168 131.13027589 154 129 Z " fill="#E1C356" transform="translate(0,0)"/>
<path d="M0 0 C5.76570815 -0.12363784 11.53064422 -0.21435706 17.29736328 -0.2746582 C19.25876303 -0.29979604 21.22006916 -0.33391165 23.18115234 -0.37719727 C26.00121144 -0.43788208 28.82003194 -0.46621641 31.640625 -0.48828125 C32.51680481 -0.51408768 33.39298462 -0.5398941 34.29571533 -0.56648254 C40.38815745 -0.56928657 40.38815745 -0.56928657 43.41845703 2.25024414 C43.94036621 3.15766357 44.46227539 4.06508301 45 5 C45.46100098 5.73444336 45.92200195 6.46888672 46.39697266 7.22558594 C46.8151123 7.97098633 47.23325195 8.71638672 47.6640625 9.484375 C48.14093506 10.32790527 48.61780762 11.17143555 49.10913086 12.04052734 C49.60936768 12.93465332 50.10960449 13.8287793 50.625 14.75 C51.70090414 16.65416526 52.77773873 18.55780507 53.85546875 20.4609375 C54.65476807 21.87391113 54.65476807 21.87391113 55.47021484 23.31542969 C57.58499189 27.02658328 59.75645687 30.70253795 61.9375 34.375 C65.82049659 40.92878268 69.58022277 47.54686856 73.3125 54.1875 C78.09930205 62.69869667 82.99993138 71.13255631 87.98803711 79.52709961 C94.12109284 89.86045243 100.1063701 100.27808264 106.09716797 110.69433594 C107.96919421 113.94648313 109.84513035 117.1963377 111.72265625 120.4453125 C118.00826008 131.32268578 124.2785674 142.2087406 130.51809692 153.11260986 C131.52696476 154.87540911 132.53678056 156.63766573 133.54663086 158.39990234 C137.44670401 165.22314591 141.2666961 172.08406536 145 179 C141.76690158 180.61654921 138.22204643 180.20567585 134.66796875 180.23828125 C133.83920731 180.246353 133.01044586 180.25442474 132.15657043 180.26274109 C130.40054415 180.27658221 128.64449096 180.28730424 126.88842773 180.29516602 C124.20829991 180.31236651 121.52940972 180.35624926 118.84960938 180.40039062 C117.14323824 180.41051879 115.43685661 180.41903451 113.73046875 180.42578125 C112.93134567 180.44328934 112.1322226 180.46079742 111.30888367 180.47883606 C107.50547189 180.46407771 105.47112129 180.2827453 102.14550781 178.28686523 C99.95191629 175.94874828 98.46156054 173.80272909 96.94140625 170.984375 C96.39742188 169.99187744 95.8534375 168.99937988 95.29296875 167.97680664 C94.72191406 166.91196045 94.15085937 165.84711426 93.5625 164.75 C92.32614639 162.49243284 91.08781015 160.23595052 89.84765625 157.98046875 C88.89850342 156.24869385 88.89850342 156.24869385 87.93017578 154.48193359 C84.8693755 148.96041403 81.69156462 143.50918472 78.5 138.0625 C77.93740479 137.09989258 77.37480957 136.13728516 76.79516602 135.14550781 C73.61695398 129.71911144 73.61695398 129.71911144 70.3671875 124.33544922 C67.4902213 119.63823501 65.09987316 115.08516293 63 110 C61.75826113 107.5831749 60.42014619 105.2282534 59.0625 102.875 C58.72798828 102.28074219 58.39347656 101.68648438 58.04882812 101.07421875 C56.52236733 98.40952997 54.95569125 95.94537876 53.01953125 93.55859375 C50.44988991 90.30305201 48.58552299 86.83217627 46.625 83.1875 C42.65714289 75.9298089 38.56102773 68.75897605 34.375 61.625 C28.44025771 51.50021029 22.59361084 41.32822624 16.78662109 31.12988281 C13.72974464 25.76358019 10.66246298 20.40444953 7.54296875 15.07421875 C7.02436279 14.18710205 6.50575684 13.29998535 5.97143555 12.38598633 C5.01703179 10.75730827 4.05907121 9.13070729 3.09692383 7.5065918 C0 2.21955819 0 2.21955819 0 0 Z " fill="#12896F" transform="translate(162,0)"/>
<path d="M0 0 C2.59221843 1.02507046 3.20748203 2.087495 4.60253906 4.47631836 C5.04082031 5.22204102 5.47910156 5.96776367 5.93066406 6.73608398 C6.37410156 7.52047852 6.81753906 8.30487305 7.27441406 9.11303711 C7.96277344 10.27222656 7.96277344 10.27222656 8.66503906 11.45483398 C12.02441406 17.26875233 12.02441406 17.26875233 12.02441406 21.80053711 C-3.69824219 30.78491211 -3.69824219 30.78491211 -6.44091797 32.34155273 C-8.01179768 33.24576937 -9.57250041 34.16824623 -11.11572266 35.11889648 C-12.69425696 36.08404084 -14.33066509 36.95347774 -15.97558594 37.80053711 C-19.59830901 36.59296275 -19.85357231 35.78199662 -21.67480469 32.54663086 C-22.16142578 31.69262695 -22.64804688 30.83862305 -23.14941406 29.95874023 C-23.64892578 29.0609082 -24.1484375 28.16307617 -24.66308594 27.23803711 C-25.42975586 25.88548828 -25.42975586 25.88548828 -26.21191406 24.50561523 C-27.47471097 22.27506742 -28.72880339 20.04006353 -29.97558594 17.80053711 C-25.88170128 13.19491687 -21.38853878 10.54897149 -15.97558594 7.67553711 C-14.39189876 6.8194205 -12.80855588 5.96266666 -11.22558594 5.10522461 C-10.11376953 4.51306152 -10.11376953 4.51306152 -8.97949219 3.90893555 C-6.80121183 2.73930964 -6.80121183 2.73930964 -4.16308594 0.93334961 C-1.97558594 -0.19946289 -1.97558594 -0.19946289 0 0 Z " fill="#DFC256" transform="translate(215.9755859375,95.199462890625)"/>
</svg>